<svg xmlns="http://www.w3.org/2000/svg" width="1440" viewBox="0 0 1440 810" height="810" version="1.0"><defs><clipPath id="a"><path d="M 336.054688 319 L 685.554688 319 L 685.554688 661.492188 L 336.054688 661.492188 Z M 336.054688 319"/></clipPath><clipPath id="b"><path d="M 336.054688 441 L 685.554688 441 L 685.554688 661.492188 L 336.054688 661.492188 Z M 336.054688 441"/></clipPath><clipPath id="c"><path d="M 410 142 L 498.054688 142 L 498.054688 241 L 410 241 Z M 410 142"/></clipPath></defs><path fill="#FFF" d="M-144 -81H1584V891H-144z"/><path fill="#FFF" d="M-144 -81H1584V891H-144z"/><path fill="#F1F1F1" d="M-144 -81H1584V891H-144z"/><path fill="#38B6FF" d="M 683.261719 659.234375 L 338.347656 659.234375 L 338.347656 443.472656 L 510.800781 322.089844 L 683.261719 443.472656 L 683.261719 659.234375"/><g clip-path="url(#a)"><path fill="#FFF" d="M 683.261719 659.234375 L 683.261719 656.925781 L 340.660156 656.925781 L 340.660156 444.667969 L 510.796875 324.914062 L 680.949219 444.667969 L 680.949219 659.234375 L 683.261719 659.234375 L 683.261719 656.925781 L 683.261719 659.234375 L 685.574219 659.234375 L 685.574219 443.472656 C 685.574219 442.722656 685.207031 442.019531 684.59375 441.585938 L 512.132812 320.203125 C 511.332031 319.644531 510.265625 319.644531 509.464844 320.203125 L 337.019531 441.585938 C 336.402344 442.019531 336.035156 442.722656 336.035156 443.472656 L 336.035156 659.234375 C 336.035156 659.839844 336.285156 660.433594 336.714844 660.863281 C 337.144531 661.292969 337.738281 661.539062 338.347656 661.539062 L 683.261719 661.539062 C 683.871094 661.539062 684.464844 661.292969 684.898438 660.863281 C 685.328125 660.433594 685.574219 659.839844 685.574219 659.234375 L 683.261719 659.234375"/></g><path fill="#38B6FF" d="M 680.949219 655.464844 L 515.164062 571.148438 L 640.4375 478.140625 C 640.460938 478.121094 640.484375 478.109375 640.511719 478.089844 L 680.949219 448.0625 L 680.949219 655.464844 M 340.660156 655.464844 L 340.660156 448.0625 L 381.070312 478.066406 C 381.105469 478.097656 381.140625 478.128906 381.179688 478.152344 L 506.433594 571.148438 L 340.660156 655.464844"/><g clip-path="url(#b)" fill="#FFF"><path d="M 338.003906 661.515625 C 337.703125 661.46875 337.410156 661.359375 337.144531 661.199219 C 336.464844 660.785156 336.042969 660.042969 336.035156 659.246094 C 336.042969 659.851562 336.289062 660.433594 336.714844 660.863281 C 337.066406 661.210938 337.523438 661.4375 338.003906 661.515625 M 683.640625 661.511719 C 684.015625 661.445312 684.371094 661.289062 684.671875 661.058594 C 684.605469 661.109375 684.539062 661.15625 684.472656 661.199219 C 684.214844 661.355469 683.929688 661.460938 683.640625 661.511719 M 685.132812 660.578125 C 685.417969 660.195312 685.566406 659.726562 685.574219 659.246094 C 685.566406 659.730469 685.410156 660.195312 685.132812 660.578125 M 336.035156 659.246094 C 336.035156 659.238281 336.035156 659.234375 336.035156 659.234375 C 336.035156 659.234375 336.035156 659.238281 336.035156 659.246094 M 685.574219 659.246094 C 685.574219 659.238281 685.574219 659.234375 685.574219 659.234375 L 685.574219 443.472656 L 685.574219 659.234375 C 685.574219 659.234375 685.574219 659.238281 685.574219 659.246094 M 685.574219 443.453125 C 685.574219 443.449219 685.574219 443.449219 685.574219 443.441406 C 685.574219 443.449219 685.574219 443.449219 685.574219 443.453125 M 336.035156 443.453125 C 336.035156 443.449219 336.035156 443.449219 336.035156 443.449219 C 336.035156 443.449219 336.035156 443.449219 336.035156 443.453125 M 685.574219 443.441406 C 685.566406 442.703125 685.199219 442.011719 684.59375 441.585938 L 684.570312 441.566406 C 685.1875 441.988281 685.566406 442.6875 685.574219 443.441406 M 336.035156 443.441406 C 336.035156 443.441406 336.035156 443.4375 336.035156 443.4375 C 336.035156 443.4375 336.035156 443.441406 336.035156 443.441406"/><path d="M 683.261719 661.539062 C 682.902344 661.539062 682.539062 661.457031 682.214844 661.289062 L 673.632812 656.925781 L 680.949219 656.925781 L 680.949219 444.667969 L 679.320312 443.519531 L 681.882812 441.621094 C 682.289062 441.316406 682.769531 441.160156 683.257812 441.160156 C 683.613281 441.160156 683.964844 441.242188 684.296875 441.410156 C 684.394531 441.453125 684.484375 441.507812 684.570312 441.566406 L 684.59375 441.585938 C 685.199219 442.011719 685.566406 442.703125 685.574219 443.441406 C 685.574219 443.449219 685.574219 443.449219 685.574219 443.453125 C 685.574219 443.453125 685.574219 443.453125 685.574219 443.460938 C 685.574219 443.46875 685.574219 443.46875 685.574219 443.472656 L 685.574219 659.234375 C 685.574219 659.234375 685.574219 659.238281 685.574219 659.246094 C 685.566406 659.726562 685.417969 660.195312 685.132812 660.578125 C 685.007812 660.757812 684.851562 660.921875 684.671875 661.058594 C 684.371094 661.289062 684.015625 661.445312 683.640625 661.511719 C 683.515625 661.527344 683.390625 661.539062 683.261719 661.539062 M 683.261719 659.234375 L 684.308594 657.179688 L 683.261719 659.234375 M 683.261719 659.234375 L 683.261719 656.925781 L 683.261719 659.234375 M 338.347656 661.539062 C 338.234375 661.539062 338.117188 661.527344 338.003906 661.515625 C 337.523438 661.4375 337.066406 661.210938 336.714844 660.863281 C 336.289062 660.433594 336.042969 659.851562 336.035156 659.246094 C 336.035156 659.238281 336.035156 659.234375 336.035156 659.234375 L 336.035156 443.472656 C 336.035156 443.46875 336.035156 443.46875 336.035156 443.460938 C 336.035156 443.453125 336.035156 443.453125 336.035156 443.453125 C 336.035156 443.449219 336.035156 443.449219 336.035156 443.449219 C 336.035156 443.449219 336.035156 443.441406 336.035156 443.441406 C 336.035156 443.441406 336.035156 443.4375 336.035156 443.4375 C 336.035156 443.4375 336.035156 443.4375 336.035156 443.429688 C 336.054688 442.578125 336.546875 441.796875 337.3125 441.410156 C 337.636719 441.242188 337.992188 441.164062 338.347656 441.164062 C 338.835938 441.164062 339.324219 441.316406 339.726562 441.621094 L 342.289062 443.519531 L 340.660156 444.667969 L 340.660156 656.925781 L 347.976562 656.925781 L 339.394531 661.289062 C 339.070312 661.457031 338.707031 661.539062 338.347656 661.539062"/></g><path fill="#FFF" d="M 680.949219 656.925781 L 673.632812 656.925781 L 510.796875 574.101562 L 347.976562 656.925781 L 340.660156 656.925781 L 340.660156 444.667969 L 342.289062 443.519531 L 380.246094 471.703125 L 380.246094 476.300781 C 380.246094 476.992188 380.546875 477.628906 381.070312 478.066406 L 340.660156 448.0625 L 340.660156 655.464844 L 506.433594 571.148438 L 509.417969 573.363281 C 509.828125 573.671875 510.316406 573.820312 510.796875 573.820312 C 511.285156 573.820312 511.769531 573.671875 512.179688 573.363281 L 515.164062 571.148438 L 680.949219 655.464844 L 680.949219 448.0625 L 640.511719 478.089844 C 641.058594 477.652344 641.371094 476.992188 641.371094 476.289062 L 641.371094 471.699219 L 679.320312 443.519531 L 680.949219 444.667969 L 680.949219 656.925781"/><path fill="#38B6FF" d="M 639.03125 272.335938 L 382.53125 272.367188 L 382.558594 476.300781 L 510.800781 571.511719 L 639.058594 476.289062 L 639.03125 272.335938"/><path fill="#FFF" d="M 639.03125 272.335938 L 639.03125 270.027344 L 382.53125 270.058594 C 381.257812 270.058594 380.222656 271.09375 380.222656 272.367188 L 380.246094 476.300781 C 380.246094 477.035156 380.589844 477.710938 381.179688 478.152344 L 509.417969 573.363281 C 510.234375 573.972656 511.363281 573.972656 512.179688 573.363281 L 640.4375 478.140625 C 641.027344 477.707031 641.371094 477.019531 641.371094 476.289062 L 641.339844 272.335938 C 641.339844 271.0625 640.304688 270.027344 639.03125 270.027344 L 639.03125 272.335938 L 636.71875 272.335938 L 636.75 475.128906 L 510.796875 568.640625 L 384.867188 475.140625 L 384.851562 274.671875 L 639.03125 274.644531 L 639.03125 272.335938 L 636.71875 272.335938 L 639.03125 272.335938"/><path fill="#FFF" d="M 402.648438 336.066406 L 402.648438 322.109375 L 620.628906 322.078125 L 620.636719 336.039062 L 402.648438 336.066406"/><path fill="#FFF" d="M 402.648438 370.59375 L 402.652344 363.605469 L 620.636719 363.582031 L 620.640625 370.558594 L 402.648438 370.59375"/><path fill="#FFF" d="M 402.667969 384.546875 L 402.652344 377.570312 L 620.640625 377.542969 L 620.640625 384.523438 L 402.667969 384.546875"/><path fill="#FFF" d="M 402.652344 398.511719 L 402.667969 391.535156 L 620.640625 391.507812 L 620.640625 398.484375 L 402.652344 398.511719"/><path fill="#FFF" d="M 402.667969 412.476562 L 402.667969 405.496094 L 620.640625 405.472656 L 620.640625 412.453125 L 402.667969 412.476562"/><path fill="#FFF" d="M 402.667969 426.445312 L 402.667969 419.460938 L 620.640625 419.425781 L 620.640625 426.414062 L 402.667969 426.445312"/><path fill="#FFF" d="M 402.667969 440.410156 L 402.667969 433.417969 L 620.640625 433.394531 L 620.640625 440.378906 L 402.667969 440.410156"/><path fill="#FFF" d="M 402.671875 454.375 L 402.667969 447.386719 L 620.648438 447.355469 L 620.648438 454.335938 L 402.671875 454.375"/><path fill="#FFF" d="M 402.671875 468.332031 L 402.667969 461.34375 L 620.648438 461.324219 L 620.648438 468.300781 L 402.671875 468.332031"/><path fill="#FFF" d="M 402.671875 482.292969 L 402.671875 475.316406 L 620.652344 475.285156 L 620.652344 482.261719 L 402.671875 482.292969"/><path fill="#FFF" d="M 413.308594 496.257812 L 403.910156 489.28125 L 617.734375 489.242188 L 608.328125 496.230469 L 413.308594 496.257812"/><path fill="#FFF" d="M 409.4375 496.257812 L 402.679688 491.234375 L 402.679688 489.28125 L 403.910156 489.28125 L 413.308594 496.257812 L 409.4375 496.257812 M 608.328125 496.230469 L 617.734375 489.242188 L 620.648438 489.242188 L 620.648438 489.957031 L 612.195312 496.230469 L 608.328125 496.230469"/><path fill="#FFF" d="M 432.105469 510.214844 L 422.710938 503.234375 L 598.925781 503.207031 L 589.519531 510.195312 L 432.105469 510.214844"/><path fill="#FFF" d="M 428.242188 510.214844 L 418.839844 503.234375 L 422.710938 503.234375 L 432.105469 510.214844 L 428.242188 510.214844 M 589.519531 510.195312 L 598.925781 503.207031 L 602.800781 503.207031 L 593.394531 510.195312 L 589.519531 510.195312"/><path fill="#FFF" d="M 450.914062 524.179688 L 441.519531 517.199219 L 580.105469 517.179688 L 570.707031 524.15625 L 450.914062 524.179688"/><path fill="#FFF" d="M 447.050781 524.179688 L 437.640625 517.199219 L 441.519531 517.199219 L 450.914062 524.179688 L 447.050781 524.179688 M 570.707031 524.15625 L 580.105469 517.179688 L 583.984375 517.179688 L 574.585938 524.15625 L 570.707031 524.15625"/><path fill="#FFF" d="M 469.710938 538.132812 L 460.316406 531.15625 L 561.292969 531.144531 L 551.894531 538.128906 L 469.710938 538.132812"/><path fill="#FFF" d="M 465.847656 538.132812 L 456.445312 531.15625 L 460.316406 531.15625 L 469.710938 538.132812 L 465.847656 538.132812 M 551.894531 538.128906 L 561.292969 531.144531 L 565.175781 531.144531 L 555.777344 538.128906 L 551.894531 538.128906"/><path fill="#FFF" d="M 488.515625 552.09375 L 479.117188 545.121094 L 542.484375 545.109375 L 533.089844 552.085938 L 488.515625 552.09375"/><path fill="#FFF" d="M 484.648438 552.09375 L 475.253906 545.121094 L 479.117188 545.121094 L 488.515625 552.09375 L 484.648438 552.09375 M 533.089844 552.085938 L 542.484375 545.109375 L 546.375 545.109375 L 536.964844 552.085938 L 533.089844 552.085938"/><path fill="#FFF" d="M 514.273438 566.058594 L 507.324219 566.058594 L 497.925781 559.085938 L 523.671875 559.082031 L 514.273438 566.058594"/><path fill="#FFF" d="M 518.152344 566.058594 L 514.273438 566.058594 L 523.671875 559.082031 L 527.554688 559.082031 L 518.152344 566.058594 M 507.324219 566.058594 L 503.453125 566.058594 L 494.058594 559.085938 L 497.925781 559.085938 L 507.324219 566.058594"/><path fill="#D88A1A" d="M 377.585938 462.667969 C 364.835938 465.148438 352.480469 456.789062 350.019531 444.039062 L 348.917969 438.273438 L 346.347656 424.746094 L 393.386719 418.867188 L 395.085938 429.339844 L 396.214844 435.128906 C 398.671875 447.875 390.332031 460.210938 377.585938 462.667969"/><path fill="#E9951C" d="M 358.472656 208.832031 L 300.726562 219.996094 L 298.5 208.464844 C 295.421875 192.523438 305.851562 177.085938 321.792969 174.007812 C 337.734375 170.933594 353.144531 181.359375 356.222656 197.300781 L 358.472656 208.832031"/><path fill="#F9AD2A" d="M 487.472656 411.492188 L 250.769531 457.246094 L 251.414062 455.824219 C 264.6875 426.835938 268.570312 394.425781 262.507812 363.117188 L 253.960938 318.878906 C 244.109375 267.863281 277.460938 218.5 328.476562 208.648438 C 379.492188 198.792969 428.851562 232.144531 438.707031 283.160156 L 448.859375 335.667969 C 453.914062 361.785156 465.695312 386.15625 483.039062 406.347656 L 487.472656 411.492188"/><path fill="#F03E41" d="M 473.460938 236.347656 L 461.90625 234.050781 C 462.527344 230.972656 462.824219 227.875 462.824219 224.820312 C 462.824219 198.886719 441.738281 177.777344 415.78125 177.777344 C 415.070312 177.777344 414.359375 177.824219 413.648438 177.890625 L 412.867188 177.9375 L 412.132812 166.199219 L 412.84375 166.152344 C 413.808594 166.085938 414.796875 166.015625 415.78125 166.015625 C 448.214844 166.015625 474.585938 192.386719 474.585938 224.820312 C 474.585938 228.652344 474.21875 232.511719 473.460938 236.347656"/><g clip-path="url(#c)"><path fill="#F03E41" d="M 496.519531 240.941406 L 484.96875 238.644531 C 485.886719 234.074219 486.347656 229.414062 486.347656 224.820312 C 486.347656 185.90625 454.695312 154.253906 415.78125 154.253906 C 414.703125 154.253906 413.648438 154.347656 412.589844 154.417969 L 411.394531 154.484375 L 410.660156 142.746094 L 411.761719 142.679688 C 413.097656 142.585938 414.429688 142.496094 415.78125 142.496094 C 461.195312 142.496094 498.105469 179.429688 498.105469 224.820312 C 498.105469 230.171875 497.578125 235.613281 496.519531 240.941406"/></g><path fill="#F03E41" d="M 450.375 231.730469 L 438.84375 229.433594 C 439.144531 227.875 439.304688 226.335938 439.304688 224.820312 C 439.304688 211.839844 428.761719 201.296875 415.78125 201.296875 C 415.140625 201.390625 414.75 201.433594 414.359375 201.480469 L 413.578125 189.722656 C 414.542969 189.605469 415.164062 189.535156 415.78125 189.535156 C 435.238281 189.535156 451.066406 205.363281 451.066406 224.820312 C 451.066406 227.09375 450.835938 229.414062 450.375 231.730469"/><path fill="#F03E41" d="M 207.863281 277.601562 C 205.933594 274.226562 204.324219 270.664062 203.128906 267.058594 C 192.816406 236.304688 209.46875 202.929688 240.203125 192.636719 C 241.167969 192.292969 242.132812 192.039062 243.097656 191.8125 L 243.742188 191.628906 L 246.773438 202.996094 L 246.039062 203.179688 C 245.347656 203.363281 244.660156 203.546875 243.949219 203.777344 C 219.347656 212.023438 206.023438 238.714844 214.269531 263.316406 C 215.234375 266.210938 216.523438 269.058594 218.082031 271.792969 L 207.863281 277.601562"/><path fill="#F03E41" d="M 187.464844 289.316406 C 184.753906 284.585938 182.527344 279.601562 180.828125 274.523438 C 173.84375 253.667969 175.382812 231.339844 185.191406 211.679688 C 195 191.996094 211.882812 177.292969 232.738281 170.3125 C 234.070312 169.875 235.378906 169.53125 236.710938 169.1875 L 237.699219 168.933594 L 240.707031 180.304688 L 239.675781 180.554688 C 238.59375 180.855469 237.539062 181.128906 236.484375 181.476562 C 218.613281 187.46875 204.117188 200.035156 195.734375 216.917969 C 187.328125 233.777344 185.996094 252.910156 191.96875 270.78125 C 193.414062 275.144531 195.34375 279.417969 197.664062 283.484375 L 187.464844 289.316406"/><path fill="#F03E41" d="M 228.28125 265.910156 C 227.109375 263.890625 226.144531 261.753906 225.410156 259.570312 C 219.253906 241.148438 229.222656 221.097656 247.667969 214.941406 C 248.265625 214.734375 248.886719 214.597656 249.484375 214.480469 L 252.859375 225.78125 C 252.46875 225.875 252.054688 225.96875 251.664062 226.035156 C 239.125 230.191406 232.460938 243.5625 236.574219 255.851562 C 237.058594 257.273438 237.699219 258.699219 238.480469 260.078125 L 228.28125 265.910156"/><path fill="#F9C055" d="M 292.4375 428.007812 L 282.652344 421.484375 C 289.359375 411.421875 291.746094 399.339844 289.382812 387.464844 L 287.660156 378.851562 L 299.191406 376.554688 L 300.914062 385.167969 C 303.898438 400.097656 300.890625 415.328125 292.4375 428.007812"/><g fill="#545454"><g><g><path d="M 50.5 -79.921875 L 67.53125 -79.921875 L 67.53125 -28.859375 C 67.53125 -24.878906 66.703125 -21.046875 65.046875 -17.359375 C 63.390625 -13.679688 61.132812 -10.453125 58.28125 -7.671875 C 55.425781 -4.890625 52.097656 -2.671875 48.296875 -1.015625 C 44.503906 0.640625 40.429688 1.46875 36.078125 1.46875 C 31.796875 1.46875 27.738281 0.640625 23.90625 -1.015625 C 20.070312 -2.671875 16.742188 -4.890625 13.921875 -7.671875 C 11.097656 -10.453125 8.859375 -13.679688 7.203125 -17.359375 C 5.554688 -21.046875 4.734375 -24.878906 4.734375 -28.859375 L 4.734375 -79.921875 L 21.75 -79.921875 L 21.75 -32.234375 C 21.75 -29.984375 22.125 -27.863281 22.875 -25.875 C 23.632812 -23.882812 24.648438 -22.117188 25.921875 -20.578125 C 27.203125 -19.035156 28.722656 -17.8125 30.484375 -16.90625 C 32.253906 -16.007812 34.117188 -15.5625 36.078125 -15.5625 C 38.109375 -15.5625 39.984375 -16.007812 41.703125 -16.90625 C 43.429688 -17.8125 44.953125 -19.035156 46.265625 -20.578125 C 47.585938 -22.117188 48.625 -23.882812 49.375 -25.875 C 50.125 -27.863281 50.5 -29.984375 50.5 -32.234375 Z M 50.5 -79.921875" transform="translate(705.125 297.62)"/></g></g></g><g fill="#545454"><g><g><path d="M 37.421875 -57.5 C 41.410156 -57.5 45.09375 -56.726562 48.46875 -55.1875 C 51.851562 -53.644531 54.765625 -51.539062 57.203125 -48.875 C 59.648438 -46.207031 61.566406 -43.085938 62.953125 -39.515625 C 64.347656 -35.941406 65.046875 -32.128906 65.046875 -28.078125 C 65.046875 -24.015625 64.347656 -20.195312 62.953125 -16.625 C 61.566406 -13.050781 59.648438 -9.929688 57.203125 -7.265625 C 54.765625 -4.597656 51.851562 -2.492188 48.46875 -0.953125 C 45.09375 0.585938 41.410156 1.359375 37.421875 1.359375 C 34.191406 1.359375 31.035156 0.773438 27.953125 -0.390625 C 24.878906 -1.554688 22.476562 -3.039062 20.75 -4.84375 L 20.75 22.328125 L 5.1875 22.328125 L 5.1875 -55.921875 L 18.484375 -55.921875 L 20.75 -52.078125 C 22.925781 -54.035156 25.363281 -55.425781 28.0625 -56.25 C 30.769531 -57.082031 33.890625 -57.5 37.421875 -57.5 Z M 35.40625 -12.515625 C 37.425781 -12.515625 39.316406 -12.925781 41.078125 -13.75 C 42.847656 -14.582031 44.390625 -15.691406 45.703125 -17.078125 C 47.023438 -18.472656 48.078125 -20.109375 48.859375 -21.984375 C 49.648438 -23.859375 50.046875 -25.890625 50.046875 -28.078125 C 50.046875 -30.179688 49.648438 -32.191406 48.859375 -34.109375 C 48.078125 -36.023438 47.023438 -37.675781 45.703125 -39.0625 C 44.390625 -40.445312 42.847656 -41.550781 41.078125 -42.375 C 39.316406 -43.207031 37.425781 -43.625 35.40625 -43.625 C 33.375 -43.625 31.472656 -43.34375 29.703125 -42.78125 C 27.941406 -42.21875 26.398438 -41.316406 25.078125 -40.078125 C 23.765625 -38.835938 22.734375 -37.21875 21.984375 -35.21875 C 21.234375 -33.226562 20.859375 -30.847656 20.859375 -28.078125 C 20.859375 -25.441406 21.234375 -23.164062 21.984375 -21.25 C 22.734375 -19.332031 23.765625 -17.71875 25.078125 -16.40625 C 26.398438 -15.09375 27.941406 -14.113281 29.703125 -13.46875 C 31.472656 -12.832031 33.375 -12.515625 35.40625 -12.515625 Z M 35.40625 -12.515625" transform="translate(777.274 297.62)"/></g></g></g><g fill="#545454"><g><g><path d="M 32.578125 -43.625 C 30.703125 -43.625 28.9375 -43.191406 27.28125 -42.328125 C 25.625 -41.460938 24.175781 -40.296875 22.9375 -38.828125 C 21.695312 -37.367188 20.71875 -35.660156 20 -33.703125 C 19.289062 -31.753906 18.9375 -29.648438 18.9375 -27.390625 C 18.9375 -25.140625 19.289062 -23.09375 20 -21.25 C 20.71875 -19.40625 21.695312 -17.828125 22.9375 -16.515625 C 24.175781 -15.203125 25.625 -14.164062 27.28125 -13.40625 C 28.9375 -12.65625 30.703125 -12.28125 32.578125 -12.28125 C 34.910156 -12.28125 37.179688 -12.828125 39.390625 -13.921875 C 41.609375 -15.015625 43.507812 -16.535156 45.09375 -18.484375 L 54.671875 -9.015625 C 52.046875 -5.859375 48.816406 -3.335938 44.984375 -1.453125 C 41.148438 0.421875 37.015625 1.359375 32.578125 1.359375 C 28.523438 1.359375 24.726562 0.585938 21.1875 -0.953125 C 17.65625 -2.492188 14.570312 -4.597656 11.9375 -7.265625 C 9.3125 -9.929688 7.226562 -13.050781 5.6875 -16.625 C 4.144531 -20.195312 3.375 -24.015625 3.375 -28.078125 C 3.375 -32.128906 4.144531 -35.941406 5.6875 -39.515625 C 7.226562 -43.085938 9.3125 -46.207031 11.9375 -48.875 C 14.570312 -51.539062 17.65625 -53.644531 21.1875 -55.1875 C 24.726562 -56.726562 28.523438 -57.5 32.578125 -57.5 C 37.160156 -57.5 41.40625 -56.519531 45.3125 -54.5625 C 49.226562 -52.601562 52.535156 -49.9375 55.234375 -46.5625 L 44.421875 -38.21875 C 42.234375 -40.25 40.253906 -41.65625 38.484375 -42.4375 C 36.722656 -43.226562 34.753906 -43.625 32.578125 -43.625 Z M 32.578125 -43.625" transform="translate(843.9 297.62)"/></g></g></g><g fill="#545454"><g><g><path d="M 32.578125 -57.5 C 36.566406 -57.5 40.328125 -56.726562 43.859375 -55.1875 C 47.390625 -53.644531 50.46875 -51.539062 53.09375 -48.875 C 55.726562 -46.207031 57.816406 -43.085938 59.359375 -39.515625 C 60.898438 -35.941406 61.671875 -32.128906 61.671875 -28.078125 C 61.671875 -24.015625 60.898438 -20.195312 59.359375 -16.625 C 57.816406 -13.050781 55.726562 -9.929688 53.09375 -7.265625 C 50.46875 -4.597656 47.390625 -2.492188 43.859375 -0.953125 C 40.328125 0.585938 36.566406 1.359375 32.578125 1.359375 C 28.523438 1.359375 24.726562 0.585938 21.1875 -0.953125 C 17.65625 -2.492188 14.570312 -4.597656 11.9375 -7.265625 C 9.3125 -9.929688 7.226562 -13.050781 5.6875 -16.625 C 4.144531 -20.195312 3.375 -24.015625 3.375 -28.078125 C 3.375 -32.128906 4.144531 -35.941406 5.6875 -39.515625 C 7.226562 -43.085938 9.3125 -46.207031 11.9375 -48.875 C 14.570312 -51.539062 17.65625 -53.644531 21.1875 -55.1875 C 24.726562 -56.726562 28.523438 -57.5 32.578125 -57.5 Z M 32.578125 -12.28125 C 34.460938 -12.28125 36.210938 -12.65625 37.828125 -13.40625 C 39.441406 -14.164062 40.867188 -15.203125 42.109375 -16.515625 C 43.347656 -17.828125 44.320312 -19.40625 45.03125 -21.25 C 45.75 -23.09375 46.109375 -25.140625 46.109375 -27.390625 C 46.109375 -29.648438 45.75 -31.753906 45.03125 -33.703125 C 44.320312 -35.660156 43.347656 -37.367188 42.109375 -38.828125 C 40.867188 -40.296875 39.441406 -41.460938 37.828125 -42.328125 C 36.210938 -43.191406 34.460938 -43.625 32.578125 -43.625 C 30.703125 -43.625 28.9375 -43.191406 27.28125 -42.328125 C 25.625 -41.460938 24.175781 -40.296875 22.9375 -38.828125 C 21.695312 -37.367188 20.71875 -35.660156 20 -33.703125 C 19.289062 -31.753906 18.9375 -29.648438 18.9375 -27.390625 C 18.9375 -25.140625 19.289062 -23.09375 20 -21.25 C 20.71875 -19.40625 21.695312 -17.828125 22.9375 -16.515625 C 24.175781 -15.203125 25.625 -14.164062 27.28125 -13.40625 C 28.9375 -12.65625 30.703125 -12.28125 32.578125 -12.28125 Z M 32.578125 -12.28125" transform="translate(901.957 297.62)"/></g></g></g><g fill="#545454"><g><g><path d="M 67.296875 -55.921875 C 69.328125 -55.921875 71.503906 -55.582031 73.828125 -54.90625 C 76.160156 -54.226562 78.320312 -53.023438 80.3125 -51.296875 C 82.3125 -49.566406 83.945312 -47.195312 85.21875 -44.1875 C 86.5 -41.1875 87.140625 -37.351562 87.140625 -32.6875 L 87.140625 0 L 71.59375 0 L 71.59375 -29.875 C 71.59375 -32.125 71.347656 -34.035156 70.859375 -35.609375 C 70.367188 -37.191406 69.707031 -38.472656 68.875 -39.453125 C 68.050781 -40.429688 67.09375 -41.125 66 -41.53125 C 64.914062 -41.945312 63.8125 -42.15625 62.6875 -42.15625 C 61.632812 -42.15625 60.582031 -41.96875 59.53125 -41.59375 C 58.476562 -41.21875 57.535156 -40.578125 56.703125 -39.671875 C 55.878906 -38.773438 55.222656 -37.535156 54.734375 -35.953125 C 54.242188 -34.378906 54 -32.390625 54 -29.984375 L 54 0 L 38.4375 0 L 38.4375 -29.875 C 38.4375 -34.457031 37.644531 -37.648438 36.0625 -39.453125 C 34.488281 -41.253906 32.203125 -42.15625 29.203125 -42.15625 C 27.015625 -42.15625 25.054688 -41.140625 23.328125 -39.109375 C 21.609375 -37.085938 20.75 -33.9375 20.75 -29.65625 L 20.75 0 L 5.1875 0 L 5.1875 -55.921875 L 18.484375 -55.921875 L 20.75 -50.734375 C 22.476562 -52.378906 24.488281 -53.65625 26.78125 -54.5625 C 29.070312 -55.46875 31.53125 -55.921875 34.15625 -55.921875 C 35.507812 -55.921875 36.9375 -55.785156 38.4375 -55.515625 C 39.945312 -55.253906 41.414062 -54.785156 42.84375 -54.109375 C 44.269531 -53.429688 45.640625 -52.546875 46.953125 -51.453125 C 48.265625 -50.367188 49.445312 -49 50.5 -47.34375 C 51.40625 -48.769531 52.492188 -50.03125 53.765625 -51.125 C 55.046875 -52.21875 56.4375 -53.117188 57.9375 -53.828125 C 59.445312 -54.546875 61.007812 -55.070312 62.625 -55.40625 C 64.238281 -55.75 65.796875 -55.921875 67.296875 -55.921875 Z M 67.296875 -55.921875" transform="translate(966.666 297.62)"/></g></g></g><g fill="#545454"><g><g><path d="M 21.984375 0 L 6.421875 0 L 6.421875 -55.921875 L 21.984375 -55.921875 Z M 14.203125 -63.578125 C 11.796875 -63.578125 9.765625 -64.40625 8.109375 -66.0625 C 6.460938 -67.71875 5.640625 -69.75 5.640625 -72.15625 C 5.640625 -74.550781 6.460938 -76.59375 8.109375 -78.28125 C 9.765625 -79.976562 11.796875 -80.828125 14.203125 -80.828125 C 16.609375 -80.828125 18.632812 -79.976562 20.28125 -78.28125 C 21.9375 -76.59375 22.765625 -74.550781 22.765625 -72.15625 C 22.765625 -69.75 21.9375 -67.71875 20.28125 -66.0625 C 18.632812 -64.40625 16.609375 -63.578125 14.203125 -63.578125 Z M 14.203125 -63.578125" transform="translate(1058.657 297.62)"/></g></g></g><g fill="#545454"><g><g><path d="M 34.15625 -55.921875 C 36.257812 -55.921875 38.585938 -55.617188 41.140625 -55.015625 C 43.703125 -54.410156 46.109375 -53.28125 48.359375 -51.625 C 50.617188 -49.976562 52.515625 -47.6875 54.046875 -44.75 C 55.585938 -41.820312 56.359375 -38.03125 56.359375 -33.375 L 56.359375 0 L 40.703125 0 L 40.703125 -32.8125 C 40.703125 -34.539062 40.414062 -36.003906 39.84375 -37.203125 C 39.28125 -38.398438 38.53125 -39.351562 37.59375 -40.0625 C 36.65625 -40.78125 35.582031 -41.304688 34.375 -41.640625 C 33.175781 -41.984375 31.976562 -42.15625 30.78125 -42.15625 C 29.800781 -42.15625 28.726562 -41.984375 27.5625 -41.640625 C 26.394531 -41.304688 25.300781 -40.765625 24.28125 -40.015625 C 23.269531 -39.265625 22.425781 -38.285156 21.75 -37.078125 C 21.082031 -35.878906 20.75 -34.457031 20.75 -32.8125 L 20.75 0 L 5.1875 0 L 5.1875 -55.921875 L 18.484375 -55.921875 L 20.75 -51.625 C 22.550781 -52.90625 24.578125 -53.941406 26.828125 -54.734375 C 29.085938 -55.523438 31.53125 -55.921875 34.15625 -55.921875 Z M 34.15625 -55.921875" transform="translate(1087.178 297.62)"/></g></g></g><g fill="#545454"><g><g><path d="M 48.921875 -55.921875 L 62.234375 -55.921875 L 62.234375 -18.9375 C 62.234375 -14.65625 62.175781 -10.84375 62.0625 -7.5 C 61.945312 -4.15625 61.660156 -1.148438 61.203125 1.515625 C 60.753906 4.191406 60.023438 6.582031 59.015625 8.6875 C 58.003906 10.789062 56.59375 12.742188 54.78125 14.546875 C 51.476562 17.773438 47.78125 19.988281 43.6875 21.1875 C 39.59375 22.394531 35.289062 23 30.78125 23 C 26.945312 23 23.335938 22.546875 19.953125 21.640625 C 16.566406 20.742188 13.523438 19.503906 10.828125 17.921875 L 10.828125 3.375 C 11.503906 4.425781 12.460938 5.363281 13.703125 6.1875 C 14.941406 7.019531 16.367188 7.738281 17.984375 8.34375 C 19.597656 8.945312 21.320312 9.414062 23.15625 9.75 C 25 10.09375 26.863281 10.265625 28.75 10.265625 C 31.226562 10.265625 33.554688 9.941406 35.734375 9.296875 C 37.910156 8.660156 39.804688 7.628906 41.421875 6.203125 C 43.046875 4.773438 44.328125 2.988281 45.265625 0.84375 C 46.203125 -1.300781 46.671875 -3.910156 46.671875 -6.984375 L 46.671875 -8.109375 C 44.492188 -6.160156 41.972656 -4.601562 39.109375 -3.4375 C 36.253906 -2.269531 33.140625 -1.6875 29.765625 -1.6875 C 26.003906 -1.6875 22.523438 -2.421875 19.328125 -3.890625 C 16.140625 -5.359375 13.378906 -7.347656 11.046875 -9.859375 C 8.710938 -12.378906 6.890625 -15.347656 5.578125 -18.765625 C 4.265625 -22.191406 3.609375 -25.820312 3.609375 -29.65625 C 3.609375 -33.488281 4.265625 -37.09375 5.578125 -40.46875 C 6.890625 -43.851562 8.710938 -46.800781 11.046875 -49.3125 C 13.378906 -51.832031 16.140625 -53.828125 19.328125 -55.296875 C 22.523438 -56.765625 26.003906 -57.5 29.765625 -57.5 C 33.296875 -57.5 36.488281 -57.023438 39.34375 -56.078125 C 42.195312 -55.140625 44.640625 -53.65625 46.671875 -51.625 Z M 32.921875 -15.5625 C 35.328125 -15.5625 37.394531 -15.992188 39.125 -16.859375 C 40.851562 -17.722656 42.28125 -18.828125 43.40625 -20.171875 C 44.53125 -21.523438 45.351562 -23.03125 45.875 -24.6875 C 46.40625 -26.34375 46.671875 -27.957031 46.671875 -29.53125 C 46.671875 -31.257812 46.390625 -32.96875 45.828125 -34.65625 C 45.265625 -36.351562 44.414062 -37.859375 43.28125 -39.171875 C 42.15625 -40.484375 40.726562 -41.550781 39 -42.375 C 37.269531 -43.207031 35.242188 -43.625 32.921875 -43.625 C 30.960938 -43.625 29.15625 -43.25 27.5 -42.5 C 25.851562 -41.75 24.410156 -40.734375 23.171875 -39.453125 C 21.929688 -38.179688 20.953125 -36.695312 20.234375 -35 C 19.523438 -33.3125 19.171875 -31.488281 19.171875 -29.53125 C 19.171875 -27.582031 19.523438 -25.757812 20.234375 -24.0625 C 20.953125 -22.375 21.929688 -20.890625 23.171875 -19.609375 C 24.410156 -18.335938 25.851562 -17.34375 27.5 -16.625 C 29.15625 -15.914062 30.960938 -15.5625 32.921875 -15.5625 Z M 32.921875 -15.5625" transform="translate(1148.167 297.62)"/></g></g></g><g fill="#545454"><g><g><path d="M 25.703125 -20.0625 C 25.703125 -17.4375 26.507812 -15.410156 28.125 -13.984375 C 29.738281 -12.554688 31.863281 -11.84375 34.5 -11.84375 C 36.601562 -11.84375 38.707031 -12.253906 40.8125 -13.078125 L 40.8125 0 C 38.925781 0.601562 36.929688 1.109375 34.828125 1.515625 C 32.722656 1.929688 30.617188 2.140625 28.515625 2.140625 C 26.117188 2.140625 23.828125 1.835938 21.640625 1.234375 C 19.460938 0.640625 17.507812 -0.390625 15.78125 -1.859375 C 14.050781 -3.328125 12.675781 -5.28125 11.65625 -7.71875 C 10.644531 -10.164062 10.140625 -13.191406 10.140625 -16.796875 L 10.140625 -42.046875 L 2.140625 -42.046875 L 2.140625 -52.53125 L 10.140625 -55.921875 L 10.140625 -68.4375 L 25.703125 -68.4375 L 25.703125 -55.921875 L 40.8125 -55.921875 L 40.8125 -42.046875 L 25.703125 -42.046875 Z M 25.703125 -20.0625" transform="translate(705.125 455.447)"/></g></g></g><g fill="#545454"><g><g><path d="M 20.40625 -48.140625 C 21.15625 -49.335938 22.019531 -50.476562 23 -51.5625 C 23.976562 -52.65625 25.140625 -53.632812 26.484375 -54.5 C 27.835938 -55.363281 29.378906 -56.054688 31.109375 -56.578125 C 32.835938 -57.109375 34.796875 -57.375 36.984375 -57.375 C 39.535156 -57.375 42.503906 -56.925781 45.890625 -56.03125 L 44.421875 -42.15625 C 43.585938 -42.3125 42.757812 -42.5 41.9375 -42.71875 C 41.257812 -42.875 40.503906 -43.007812 39.671875 -43.125 C 38.847656 -43.238281 38.097656 -43.296875 37.421875 -43.296875 C 35.015625 -43.296875 32.78125 -42.957031 30.71875 -42.28125 C 28.65625 -41.601562 26.867188 -40.660156 25.359375 -39.453125 C 23.859375 -38.253906 22.65625 -36.804688 21.75 -35.109375 C 20.851562 -33.421875 20.40625 -31.601562 20.40625 -29.65625 L 20.40625 0 L 4.84375 0 L 4.84375 -55.921875 L 18.9375 -55.921875 Z M 20.40625 -48.140625" transform="translate(748.302 455.447)"/></g></g></g><g fill="#545454"><g><g><path d="M 63.578125 -55.921875 L 63.578125 0 L 50.171875 0 L 48.59375 -5.96875 C 46.40625 -3.039062 43.789062 -1.085938 40.75 -0.109375 C 37.707031 0.867188 34.535156 1.359375 31.234375 1.359375 C 27.242188 1.359375 23.578125 0.585938 20.234375 -0.953125 C 16.890625 -2.492188 13.976562 -4.597656 11.5 -7.265625 C 9.019531 -9.929688 7.082031 -13.050781 5.6875 -16.625 C 4.300781 -20.195312 3.609375 -24.015625 3.609375 -28.078125 C 3.609375 -32.128906 4.300781 -35.941406 5.6875 -39.515625 C 7.082031 -43.085938 9.019531 -46.207031 11.5 -48.875 C 13.976562 -51.539062 16.890625 -53.644531 20.234375 -55.1875 C 23.578125 -56.726562 27.242188 -57.5 31.234375 -57.5 C 34.835938 -57.5 38.140625 -56.929688 41.140625 -55.796875 C 44.148438 -54.671875 46.632812 -52.867188 48.59375 -50.390625 L 50.171875 -55.921875 Z M 48.03125 -27.84375 C 48.03125 -30.769531 47.632812 -33.226562 46.84375 -35.21875 C 46.050781 -37.21875 45 -38.835938 43.6875 -40.078125 C 42.375 -41.316406 40.832031 -42.21875 39.0625 -42.78125 C 37.289062 -43.34375 35.394531 -43.625 33.375 -43.625 C 31.34375 -43.625 29.441406 -43.207031 27.671875 -42.375 C 25.910156 -41.550781 24.351562 -40.445312 23 -39.0625 C 21.644531 -37.675781 20.59375 -36.023438 19.84375 -34.109375 C 19.09375 -32.191406 18.71875 -30.179688 18.71875 -28.078125 C 18.71875 -25.890625 19.09375 -23.859375 19.84375 -21.984375 C 20.59375 -20.109375 21.644531 -18.472656 23 -17.078125 C 24.351562 -15.691406 25.910156 -14.582031 27.671875 -13.75 C 29.441406 -12.925781 31.34375 -12.515625 33.375 -12.515625 C 37.425781 -12.515625 40.859375 -13.769531 43.671875 -16.28125 C 46.492188 -18.800781 47.945312 -22.65625 48.03125 -27.84375 Z M 48.03125 -27.84375" transform="translate(794.748 455.447)"/></g></g></g><g fill="#545454"><g><g><path d="M 49.15625 -55.921875 L 65.953125 -55.921875 L 43.40625 0 L 23.34375 0 L 0.796875 -55.921875 L 17.46875 -55.921875 L 33.375 -14.546875 Z M 49.15625 -55.921875" transform="translate(863.29 455.447)"/></g></g></g><g fill="#545454"><g><g><path d="M 32.6875 -57.5 C 36.894531 -57.5 40.726562 -56.648438 44.1875 -54.953125 C 47.644531 -53.265625 50.613281 -51.046875 53.09375 -48.296875 C 55.570312 -45.554688 57.488281 -42.398438 58.84375 -38.828125 C 60.195312 -35.265625 60.875 -31.601562 60.875 -27.84375 C 60.875 -25.59375 60.570312 -23.1875 59.96875 -20.625 L 20.0625 -20.625 C 21.570312 -18.070312 23.710938 -15.910156 26.484375 -14.140625 C 29.265625 -12.378906 32.273438 -11.5 35.515625 -11.5 C 38.742188 -11.5 41.578125 -11.757812 44.015625 -12.28125 C 46.460938 -12.8125 48.773438 -13.488281 50.953125 -14.3125 L 56.140625 -4.734375 C 53.359375 -2.773438 50.179688 -1.269531 46.609375 -0.21875 C 43.046875 0.832031 39.234375 1.359375 35.171875 1.359375 C 30.734375 1.359375 26.597656 0.585938 22.765625 -0.953125 C 18.929688 -2.492188 15.585938 -4.578125 12.734375 -7.203125 C 9.878906 -9.835938 7.625 -12.957031 5.96875 -16.5625 C 4.320312 -20.175781 3.5 -24.015625 3.5 -28.078125 C 3.5 -32.054688 4.25 -35.828125 5.75 -39.390625 C 7.25 -42.960938 9.332031 -46.082031 12 -48.75 C 14.675781 -51.425781 17.78125 -53.550781 21.3125 -55.125 C 24.84375 -56.707031 28.632812 -57.5 32.6875 -57.5 Z M 45.4375 -32.6875 C 44.53125 -35.925781 42.910156 -38.554688 40.578125 -40.578125 C 38.253906 -42.609375 35.625 -43.625 32.6875 -43.625 C 29.6875 -43.625 26.960938 -42.609375 24.515625 -40.578125 C 22.078125 -38.554688 20.40625 -35.925781 19.5 -32.6875 Z M 45.4375 -32.6875" transform="translate(930.253 455.447)"/></g></g></g><g fill="#545454"><g><g><path d="M 5.53125 -82.40625 L 21.078125 -82.40625 L 21.078125 0 L 5.53125 0 Z M 5.53125 -82.40625" transform="translate(997.33 455.447)"/></g></g></g><g fill="#545454"><g><g><path d="M 20.40625 -48.140625 C 21.15625 -49.335938 22.019531 -50.476562 23 -51.5625 C 23.976562 -52.65625 25.140625 -53.632812 26.484375 -54.5 C 27.835938 -55.363281 29.378906 -56.054688 31.109375 -56.578125 C 32.835938 -57.109375 34.796875 -57.375 36.984375 -57.375 C 39.535156 -57.375 42.503906 -56.925781 45.890625 -56.03125 L 44.421875 -42.15625 C 43.585938 -42.3125 42.757812 -42.5 41.9375 -42.71875 C 41.257812 -42.875 40.503906 -43.007812 39.671875 -43.125 C 38.847656 -43.238281 38.097656 -43.296875 37.421875 -43.296875 C 35.015625 -43.296875 32.78125 -42.957031 30.71875 -42.28125 C 28.65625 -41.601562 26.867188 -40.660156 25.359375 -39.453125 C 23.859375 -38.253906 22.65625 -36.804688 21.75 -35.109375 C 20.851562 -33.421875 20.40625 -31.601562 20.40625 -29.65625 L 20.40625 0 L 4.84375 0 L 4.84375 -55.921875 L 18.9375 -55.921875 Z M 20.40625 -48.140625" transform="translate(705.125 613.274)"/></g></g></g><g fill="#545454"><g><g><path d="M 32.6875 -57.5 C 36.894531 -57.5 40.726562 -56.648438 44.1875 -54.953125 C 47.644531 -53.265625 50.613281 -51.046875 53.09375 -48.296875 C 55.570312 -45.554688 57.488281 -42.398438 58.84375 -38.828125 C 60.195312 -35.265625 60.875 -31.601562 60.875 -27.84375 C 60.875 -25.59375 60.570312 -23.1875 59.96875 -20.625 L 20.0625 -20.625 C 21.570312 -18.070312 23.710938 -15.910156 26.484375 -14.140625 C 29.265625 -12.378906 32.273438 -11.5 35.515625 -11.5 C 38.742188 -11.5 41.578125 -11.757812 44.015625 -12.28125 C 46.460938 -12.8125 48.773438 -13.488281 50.953125 -14.3125 L 56.140625 -4.734375 C 53.359375 -2.773438 50.179688 -1.269531 46.609375 -0.21875 C 43.046875 0.832031 39.234375 1.359375 35.171875 1.359375 C 30.734375 1.359375 26.597656 0.585938 22.765625 -0.953125 C 18.929688 -2.492188 15.585938 -4.578125 12.734375 -7.203125 C 9.878906 -9.835938 7.625 -12.957031 5.96875 -16.5625 C 4.320312 -20.175781 3.5 -24.015625 3.5 -28.078125 C 3.5 -32.054688 4.25 -35.828125 5.75 -39.390625 C 7.25 -42.960938 9.332031 -46.082031 12 -48.75 C 14.675781 -51.425781 17.78125 -53.550781 21.3125 -55.125 C 24.84375 -56.707031 28.632812 -57.5 32.6875 -57.5 Z M 45.4375 -32.6875 C 44.53125 -35.925781 42.910156 -38.554688 40.578125 -40.578125 C 38.253906 -42.609375 35.625 -43.625 32.6875 -43.625 C 29.6875 -43.625 26.960938 -42.609375 24.515625 -40.578125 C 22.078125 -38.554688 20.40625 -35.925781 19.5 -32.6875 Z M 45.4375 -32.6875" transform="translate(751.571 613.274)"/></g></g></g><g fill="#545454"><g><g><path d="M 67.296875 -55.921875 C 69.328125 -55.921875 71.503906 -55.582031 73.828125 -54.90625 C 76.160156 -54.226562 78.320312 -53.023438 80.3125 -51.296875 C 82.3125 -49.566406 83.945312 -47.195312 85.21875 -44.1875 C 86.5 -41.1875 87.140625 -37.351562 87.140625 -32.6875 L 87.140625 0 L 71.59375 0 L 71.59375 -29.875 C 71.59375 -32.125 71.347656 -34.035156 70.859375 -35.609375 C 70.367188 -37.191406 69.707031 -38.472656 68.875 -39.453125 C 68.050781 -40.429688 67.09375 -41.125 66 -41.53125 C 64.914062 -41.945312 63.8125 -42.15625 62.6875 -42.15625 C 61.632812 -42.15625 60.582031 -41.96875 59.53125 -41.59375 C 58.476562 -41.21875 57.535156 -40.578125 56.703125 -39.671875 C 55.878906 -38.773438 55.222656 -37.535156 54.734375 -35.953125 C 54.242188 -34.378906 54 -32.390625 54 -29.984375 L 54 0 L 38.4375 0 L 38.4375 -29.875 C 38.4375 -34.457031 37.644531 -37.648438 36.0625 -39.453125 C 34.488281 -41.253906 32.203125 -42.15625 29.203125 -42.15625 C 27.015625 -42.15625 25.054688 -41.140625 23.328125 -39.109375 C 21.609375 -37.085938 20.75 -33.9375 20.75 -29.65625 L 20.75 0 L 5.1875 0 L 5.1875 -55.921875 L 18.484375 -55.921875 L 20.75 -50.734375 C 22.476562 -52.378906 24.488281 -53.65625 26.78125 -54.5625 C 29.070312 -55.46875 31.53125 -55.921875 34.15625 -55.921875 C 35.507812 -55.921875 36.9375 -55.785156 38.4375 -55.515625 C 39.945312 -55.253906 41.414062 -54.785156 42.84375 -54.109375 C 44.269531 -53.429688 45.640625 -52.546875 46.953125 -51.453125 C 48.265625 -50.367188 49.445312 -49 50.5 -47.34375 C 51.40625 -48.769531 52.492188 -50.03125 53.765625 -51.125 C 55.046875 -52.21875 56.4375 -53.117188 57.9375 -53.828125 C 59.445312 -54.546875 61.007812 -55.070312 62.625 -55.40625 C 64.238281 -55.75 65.796875 -55.921875 67.296875 -55.921875 Z M 67.296875 -55.921875" transform="translate(818.647 613.274)"/></g></g></g><g fill="#545454"><g><g><path d="M 21.984375 0 L 6.421875 0 L 6.421875 -55.921875 L 21.984375 -55.921875 Z M 14.203125 -63.578125 C 11.796875 -63.578125 9.765625 -64.40625 8.109375 -66.0625 C 6.460938 -67.71875 5.640625 -69.75 5.640625 -72.15625 C 5.640625 -74.550781 6.460938 -76.59375 8.109375 -78.28125 C 9.765625 -79.976562 11.796875 -80.828125 14.203125 -80.828125 C 16.609375 -80.828125 18.632812 -79.976562 20.28125 -78.28125 C 21.9375 -76.59375 22.765625 -74.550781 22.765625 -72.15625 C 22.765625 -69.75 21.9375 -67.71875 20.28125 -66.0625 C 18.632812 -64.40625 16.609375 -63.578125 14.203125 -63.578125 Z M 14.203125 -63.578125" transform="translate(910.638 613.274)"/></g></g></g><g fill="#545454"><g><g><path d="M 34.15625 -55.921875 C 36.257812 -55.921875 38.585938 -55.617188 41.140625 -55.015625 C 43.703125 -54.410156 46.109375 -53.28125 48.359375 -51.625 C 50.617188 -49.976562 52.515625 -47.6875 54.046875 -44.75 C 55.585938 -41.820312 56.359375 -38.03125 56.359375 -33.375 L 56.359375 0 L 40.703125 0 L 40.703125 -32.8125 C 40.703125 -34.539062 40.414062 -36.003906 39.84375 -37.203125 C 39.28125 -38.398438 38.53125 -39.351562 37.59375 -40.0625 C 36.65625 -40.78125 35.582031 -41.304688 34.375 -41.640625 C 33.175781 -41.984375 31.976562 -42.15625 30.78125 -42.15625 C 29.800781 -42.15625 28.726562 -41.984375 27.5625 -41.640625 C 26.394531 -41.304688 25.300781 -40.765625 24.28125 -40.015625 C 23.269531 -39.265625 22.425781 -38.285156 21.75 -37.078125 C 21.082031 -35.878906 20.75 -34.457031 20.75 -32.8125 L 20.75 0 L 5.1875 0 L 5.1875 -55.921875 L 18.484375 -55.921875 L 20.75 -51.625 C 22.550781 -52.90625 24.578125 -53.941406 26.828125 -54.734375 C 29.085938 -55.523438 31.53125 -55.921875 34.15625 -55.921875 Z M 34.15625 -55.921875" transform="translate(939.16 613.274)"/></g></g></g><g fill="#545454"><g><g><path d="M 61.4375 -82.296875 L 61.4375 0 L 48.140625 0 L 45.890625 -4.84375 C 44.160156 -3.039062 41.769531 -1.554688 38.71875 -0.390625 C 35.675781 0.773438 32.503906 1.359375 29.203125 1.359375 C 25.210938 1.359375 21.523438 0.585938 18.140625 -0.953125 C 14.765625 -2.492188 11.851562 -4.597656 9.40625 -7.265625 C 6.96875 -9.929688 5.050781 -13.050781 3.65625 -16.625 C 2.269531 -20.195312 1.578125 -24.015625 1.578125 -28.078125 C 1.578125 -32.128906 2.269531 -35.941406 3.65625 -39.515625 C 5.050781 -43.085938 6.96875 -46.207031 9.40625 -48.875 C 11.851562 -51.539062 14.765625 -53.644531 18.140625 -55.1875 C 21.523438 -56.726562 25.210938 -57.5 29.203125 -57.5 C 32.734375 -57.5 35.867188 -57.082031 38.609375 -56.25 C 41.347656 -55.425781 43.773438 -54.035156 45.890625 -52.078125 L 45.890625 -82.296875 Z M 45.890625 -27.84375 C 45.890625 -30.769531 45.507812 -33.226562 44.75 -35.21875 C 44 -37.21875 42.945312 -38.835938 41.59375 -40.078125 C 40.238281 -41.316406 38.675781 -42.21875 36.90625 -42.78125 C 35.144531 -43.34375 33.253906 -43.625 31.234375 -43.625 C 29.203125 -43.625 27.300781 -43.207031 25.53125 -42.375 C 23.769531 -41.550781 22.226562 -40.445312 20.90625 -39.0625 C 19.59375 -37.675781 18.5625 -36.023438 17.8125 -34.109375 C 17.0625 -32.191406 16.6875 -30.179688 16.6875 -28.078125 C 16.6875 -25.890625 17.0625 -23.859375 17.8125 -21.984375 C 18.5625 -20.109375 19.59375 -18.472656 20.90625 -17.078125 C 22.226562 -15.691406 23.769531 -14.582031 25.53125 -13.75 C 27.300781 -12.925781 29.203125 -12.515625 31.234375 -12.515625 C 35.285156 -12.515625 38.71875 -13.769531 41.53125 -16.28125 C 44.351562 -18.800781 45.804688 -22.65625 45.890625 -27.84375 Z M 45.890625 -27.84375" transform="translate(1000.148 613.274)"/></g></g></g><g fill="#545454"><g><g><path d="M 32.6875 -57.5 C 36.894531 -57.5 40.726562 -56.648438 44.1875 -54.953125 C 47.644531 -53.265625 50.613281 -51.046875 53.09375 -48.296875 C 55.570312 -45.554688 57.488281 -42.398438 58.84375 -38.828125 C 60.195312 -35.265625 60.875 -31.601562 60.875 -27.84375 C 60.875 -25.59375 60.570312 -23.1875 59.96875 -20.625 L 20.0625 -20.625 C 21.570312 -18.070312 23.710938 -15.910156 26.484375 -14.140625 C 29.265625 -12.378906 32.273438 -11.5 35.515625 -11.5 C 38.742188 -11.5 41.578125 -11.757812 44.015625 -12.28125 C 46.460938 -12.8125 48.773438 -13.488281 50.953125 -14.3125 L 56.140625 -4.734375 C 53.359375 -2.773438 50.179688 -1.269531 46.609375 -0.21875 C 43.046875 0.832031 39.234375 1.359375 35.171875 1.359375 C 30.734375 1.359375 26.597656 0.585938 22.765625 -0.953125 C 18.929688 -2.492188 15.585938 -4.578125 12.734375 -7.203125 C 9.878906 -9.835938 7.625 -12.957031 5.96875 -16.5625 C 4.320312 -20.175781 3.5 -24.015625 3.5 -28.078125 C 3.5 -32.054688 4.25 -35.828125 5.75 -39.390625 C 7.25 -42.960938 9.332031 -46.082031 12 -48.75 C 14.675781 -51.425781 17.78125 -53.550781 21.3125 -55.125 C 24.84375 -56.707031 28.632812 -57.5 32.6875 -57.5 Z M 45.4375 -32.6875 C 44.53125 -35.925781 42.910156 -38.554688 40.578125 -40.578125 C 38.253906 -42.609375 35.625 -43.625 32.6875 -43.625 C 29.6875 -43.625 26.960938 -42.609375 24.515625 -40.578125 C 22.078125 -38.554688 20.40625 -35.925781 19.5 -32.6875 Z M 45.4375 -32.6875" transform="translate(1066.66 613.274)"/></g></g></g><g fill="#545454"><g><g><path d="M 20.40625 -48.140625 C 21.15625 -49.335938 22.019531 -50.476562 23 -51.5625 C 23.976562 -52.65625 25.140625 -53.632812 26.484375 -54.5 C 27.835938 -55.363281 29.378906 -56.054688 31.109375 -56.578125 C 32.835938 -57.109375 34.796875 -57.375 36.984375 -57.375 C 39.535156 -57.375 42.503906 -56.925781 45.890625 -56.03125 L 44.421875 -42.15625 C 43.585938 -42.3125 42.757812 -42.5 41.9375 -42.71875 C 41.257812 -42.875 40.503906 -43.007812 39.671875 -43.125 C 38.847656 -43.238281 38.097656 -43.296875 37.421875 -43.296875 C 35.015625 -43.296875 32.78125 -42.957031 30.71875 -42.28125 C 28.65625 -41.601562 26.867188 -40.660156 25.359375 -39.453125 C 23.859375 -38.253906 22.65625 -36.804688 21.75 -35.109375 C 20.851562 -33.421875 20.40625 -31.601562 20.40625 -29.65625 L 20.40625 0 L 4.84375 0 L 4.84375 -55.921875 L 18.9375 -55.921875 Z M 20.40625 -48.140625" transform="translate(1133.737 613.274)"/></g></g></g><g fill="#545454"><g><g><path d="M 15.890625 -16.234375 C 18.296875 -16.234375 20.328125 -15.40625 21.984375 -13.75 C 23.640625 -12.09375 24.46875 -10.066406 24.46875 -7.671875 C 24.46875 -5.265625 23.640625 -3.234375 21.984375 -1.578125 C 20.328125 0.078125 18.296875 0.90625 15.890625 0.90625 C 13.484375 0.90625 11.4375 0.078125 9.75 -1.578125 C 8.0625 -3.234375 7.21875 -5.265625 7.21875 -7.671875 C 7.21875 -10.066406 8.0625 -12.09375 9.75 -13.75 C 11.4375 -15.40625 13.484375 -16.234375 15.890625 -16.234375 Z M 9.015625 -23.109375 L 7.671875 -79.921875 L 24.125 -79.921875 L 22.890625 -23.109375 Z M 9.015625 -23.109375" transform="translate(1180.183 613.274)"/></g></g></g></svg>