<svg xmlns="http://www.w3.org/2000/svg" width="150" viewBox="0 0 150 37.5" height="37.5" version="1.0"><defs><clipPath id="a"><path d="M 32.3125 5.84375 L 40.453125 5.84375 L 40.453125 13.984375 L 32.3125 13.984375 Z M 32.3125 5.84375"/></clipPath></defs><g fill="#0F586C"><g><g><path d="M 15.875 -18.53125 L 15.875 -14.96875 L 10.296875 -14.96875 L 10.296875 0 L 6.125 0 L 6.125 -14.96875 L 0.53125 -14.96875 L 0.53125 -18.53125 Z M 15.875 -18.53125" transform="translate(4.764 28.79)"/></g></g></g><g fill="#0F586C"><g><g><path d="M 10.34375 -10.53125 C 9.988281 -10.625 9.570312 -10.71875 9.09375 -10.8125 C 8.613281 -10.914062 8.097656 -10.96875 7.546875 -10.96875 C 7.296875 -10.96875 6.992188 -10.941406 6.640625 -10.890625 C 6.296875 -10.847656 6.035156 -10.800781 5.859375 -10.75 L 5.859375 0 L 1.875 0 L 1.875 -13.3125 C 2.582031 -13.5625 3.421875 -13.796875 4.390625 -14.015625 C 5.367188 -14.242188 6.453125 -14.359375 7.640625 -14.359375 C 7.859375 -14.359375 8.117188 -14.34375 8.421875 -14.3125 C 8.722656 -14.289062 9.023438 -14.253906 9.328125 -14.203125 C 9.628906 -14.160156 9.929688 -14.109375 10.234375 -14.046875 C 10.535156 -13.984375 10.796875 -13.910156 11.015625 -13.828125 Z M 10.34375 -10.53125" transform="translate(21.18 28.79)"/></g></g></g><g fill="#0F586C"><g><g><path d="M 5.859375 0 L 1.875 0 L 1.875 -14.0625 L 5.859375 -14.0625 Z M 6.234375 -18.125 C 6.234375 -17.394531 5.992188 -16.816406 5.515625 -16.390625 C 5.046875 -15.972656 4.488281 -15.765625 3.84375 -15.765625 C 3.207031 -15.765625 2.648438 -15.972656 2.171875 -16.390625 C 1.703125 -16.816406 1.46875 -17.394531 1.46875 -18.125 C 1.46875 -18.851562 1.703125 -19.425781 2.171875 -19.84375 C 2.648438 -20.269531 3.207031 -20.484375 3.84375 -20.484375 C 4.488281 -20.484375 5.046875 -20.269531 5.515625 -19.84375 C 5.992188 -19.425781 6.234375 -18.851562 6.234375 -18.125 Z M 6.234375 -18.125" transform="translate(32.464 28.79)"/></g></g></g><g fill="#0F586C"><g><g><path d="M 10.875 -6.921875 C 10.875 -8.148438 10.597656 -9.132812 10.046875 -9.875 C 9.492188 -10.613281 8.675781 -10.984375 7.59375 -10.984375 C 7.238281 -10.984375 6.910156 -10.96875 6.609375 -10.9375 C 6.304688 -10.914062 6.054688 -10.890625 5.859375 -10.859375 L 5.859375 -3.65625 C 6.109375 -3.5 6.429688 -3.363281 6.828125 -3.25 C 7.234375 -3.144531 7.640625 -3.09375 8.046875 -3.09375 C 9.929688 -3.09375 10.875 -4.367188 10.875 -6.921875 Z M 14.9375 -7.03125 C 14.9375 -5.945312 14.800781 -4.957031 14.53125 -4.0625 C 14.269531 -3.175781 13.878906 -2.410156 13.359375 -1.765625 C 12.847656 -1.117188 12.207031 -0.617188 11.4375 -0.265625 C 10.675781 0.0859375 9.796875 0.265625 8.796875 0.265625 C 8.242188 0.265625 7.722656 0.210938 7.234375 0.109375 C 6.753906 0.00390625 6.296875 -0.144531 5.859375 -0.34375 L 5.859375 4.953125 L 1.875 4.953125 L 1.875 -13.578125 C 2.226562 -13.679688 2.632812 -13.78125 3.09375 -13.875 C 3.5625 -13.976562 4.046875 -14.066406 4.546875 -14.140625 C 5.054688 -14.210938 5.570312 -14.269531 6.09375 -14.3125 C 6.625 -14.363281 7.132812 -14.390625 7.625 -14.390625 C 8.78125 -14.390625 9.8125 -14.210938 10.71875 -13.859375 C 11.625 -13.515625 12.390625 -13.023438 13.015625 -12.390625 C 13.640625 -11.753906 14.113281 -10.984375 14.4375 -10.078125 C 14.769531 -9.171875 14.9375 -8.15625 14.9375 -7.03125 Z M 14.9375 -7.03125" transform="translate(40.191 28.79)"/></g></g></g><g fill="#0F586C"><g><g><path d="M 8.3125 0.234375 C 7.300781 0.234375 6.289062 0.203125 5.28125 0.140625 C 4.269531 0.078125 3.222656 -0.0664062 2.140625 -0.296875 L 2.140625 -18.265625 C 2.992188 -18.421875 3.925781 -18.535156 4.9375 -18.609375 C 5.957031 -18.691406 6.90625 -18.734375 7.78125 -18.734375 C 8.957031 -18.734375 10.039062 -18.648438 11.03125 -18.484375 C 12.019531 -18.316406 12.867188 -18.023438 13.578125 -17.609375 C 14.296875 -17.203125 14.851562 -16.664062 15.25 -16 C 15.65625 -15.332031 15.859375 -14.507812 15.859375 -13.53125 C 15.859375 -12.050781 15.144531 -10.882812 13.71875 -10.03125 C 14.894531 -9.582031 15.695312 -8.972656 16.125 -8.203125 C 16.550781 -7.441406 16.765625 -6.578125 16.765625 -5.609375 C 16.765625 -3.671875 16.054688 -2.210938 14.640625 -1.234375 C 13.222656 -0.253906 11.113281 0.234375 8.3125 0.234375 Z M 6.203125 -8.078125 L 6.203125 -3.28125 C 6.503906 -3.25 6.832031 -3.222656 7.1875 -3.203125 C 7.539062 -3.191406 7.9375 -3.1875 8.375 -3.1875 C 9.613281 -3.1875 10.613281 -3.363281 11.375 -3.71875 C 12.144531 -4.070312 12.53125 -4.726562 12.53125 -5.6875 C 12.53125 -6.550781 12.207031 -7.164062 11.5625 -7.53125 C 10.925781 -7.894531 10.015625 -8.078125 8.828125 -8.078125 Z M 6.203125 -11.25 L 8.234375 -11.25 C 9.515625 -11.25 10.429688 -11.414062 10.984375 -11.75 C 11.535156 -12.082031 11.8125 -12.613281 11.8125 -13.34375 C 11.8125 -14.09375 11.523438 -14.617188 10.953125 -14.921875 C 10.390625 -15.222656 9.554688 -15.375 8.453125 -15.375 C 8.085938 -15.375 7.703125 -15.367188 7.296875 -15.359375 C 6.890625 -15.347656 6.523438 -15.328125 6.203125 -15.296875 Z M 6.203125 -11.25" transform="translate(56.34 28.79)"/></g></g></g><g fill="#0F586C"><g><g><path d="M 13.875 -0.484375 C 13.195312 -0.285156 12.320312 -0.101562 11.25 0.0625 C 10.1875 0.238281 9.066406 0.328125 7.890625 0.328125 C 6.691406 0.328125 5.695312 0.164062 4.90625 -0.15625 C 4.113281 -0.476562 3.484375 -0.925781 3.015625 -1.5 C 2.554688 -2.082031 2.226562 -2.773438 2.03125 -3.578125 C 1.832031 -4.378906 1.734375 -5.265625 1.734375 -6.234375 L 1.734375 -14.0625 L 5.71875 -14.0625 L 5.71875 -6.703125 C 5.71875 -5.421875 5.882812 -4.492188 6.21875 -3.921875 C 6.5625 -3.359375 7.195312 -3.078125 8.125 -3.078125 C 8.414062 -3.078125 8.71875 -3.085938 9.03125 -3.109375 C 9.351562 -3.140625 9.640625 -3.171875 9.890625 -3.203125 L 9.890625 -14.0625 L 13.875 -14.0625 Z M 13.875 -0.484375" transform="translate(74.308 28.79)"/></g></g></g><g fill="#0F586C"><g><g><path d="M 1.203125 -7.03125 C 1.203125 -8.050781 1.363281 -9.007812 1.6875 -9.90625 C 2.019531 -10.800781 2.5 -11.582031 3.125 -12.25 C 3.75 -12.925781 4.503906 -13.457031 5.390625 -13.84375 C 6.285156 -14.238281 7.304688 -14.4375 8.453125 -14.4375 C 9.203125 -14.4375 9.882812 -14.367188 10.5 -14.234375 C 11.125 -14.097656 11.734375 -13.90625 12.328125 -13.65625 L 11.5 -10.484375 C 11.125 -10.617188 10.710938 -10.738281 10.265625 -10.84375 C 9.816406 -10.957031 9.316406 -11.015625 8.765625 -11.015625 C 7.585938 -11.015625 6.707031 -10.648438 6.125 -9.921875 C 5.550781 -9.191406 5.265625 -8.226562 5.265625 -7.03125 C 5.265625 -5.769531 5.535156 -4.789062 6.078125 -4.09375 C 6.617188 -3.394531 7.566406 -3.046875 8.921875 -3.046875 C 9.410156 -3.046875 9.929688 -3.085938 10.484375 -3.171875 C 11.035156 -3.265625 11.539062 -3.410156 12 -3.609375 L 12.5625 -0.34375 C 12.101562 -0.144531 11.523438 0.0195312 10.828125 0.15625 C 10.128906 0.300781 9.363281 0.375 8.53125 0.375 C 7.25 0.375 6.144531 0.179688 5.21875 -0.203125 C 4.289062 -0.585938 3.523438 -1.109375 2.921875 -1.765625 C 2.328125 -2.421875 1.890625 -3.195312 1.609375 -4.09375 C 1.335938 -5 1.203125 -5.976562 1.203125 -7.03125 Z M 1.203125 -7.03125" transform="translate(90.056 28.79)"/></g></g></g><g fill="#0F586C"><g><g><path d="M 5.859375 -8.984375 C 6.242188 -9.410156 6.644531 -9.851562 7.0625 -10.3125 C 7.488281 -10.78125 7.894531 -11.238281 8.28125 -11.6875 C 8.675781 -12.144531 9.046875 -12.578125 9.390625 -12.984375 C 9.742188 -13.398438 10.046875 -13.757812 10.296875 -14.0625 L 15.03125 -14.0625 C 14.082031 -12.976562 13.15625 -11.941406 12.25 -10.953125 C 11.351562 -9.960938 10.367188 -8.941406 9.296875 -7.890625 C 9.835938 -7.410156 10.390625 -6.832031 10.953125 -6.15625 C 11.523438 -5.488281 12.078125 -4.796875 12.609375 -4.078125 C 13.148438 -3.367188 13.640625 -2.65625 14.078125 -1.9375 C 14.523438 -1.226562 14.90625 -0.582031 15.21875 0 L 10.640625 0 C 10.359375 -0.457031 10.03125 -0.96875 9.65625 -1.53125 C 9.289062 -2.09375 8.90625 -2.65625 8.5 -3.21875 C 8.09375 -3.78125 7.660156 -4.316406 7.203125 -4.828125 C 6.742188 -5.347656 6.296875 -5.789062 5.859375 -6.15625 L 5.859375 0 L 1.875 0 L 1.875 -20.109375 L 5.859375 -20.75 Z M 5.859375 -8.984375" transform="translate(103.425 28.79)"/></g></g></g><g fill="#0F586C"><g><g><path d="M 1.203125 -6.921875 C 1.203125 -8.171875 1.394531 -9.265625 1.78125 -10.203125 C 2.164062 -11.140625 2.664062 -11.914062 3.28125 -12.53125 C 3.90625 -13.15625 4.625 -13.628906 5.4375 -13.953125 C 6.25 -14.273438 7.082031 -14.4375 7.9375 -14.4375 C 9.9375 -14.4375 11.515625 -13.828125 12.671875 -12.609375 C 13.828125 -11.390625 14.40625 -9.59375 14.40625 -7.21875 C 14.40625 -6.988281 14.394531 -6.734375 14.375 -6.453125 C 14.363281 -6.179688 14.347656 -5.9375 14.328125 -5.71875 L 5.296875 -5.71875 C 5.378906 -4.894531 5.757812 -4.242188 6.4375 -3.765625 C 7.113281 -3.285156 8.023438 -3.046875 9.171875 -3.046875 C 9.898438 -3.046875 10.613281 -3.113281 11.3125 -3.25 C 12.019531 -3.382812 12.597656 -3.550781 13.046875 -3.75 L 13.578125 -0.515625 C 13.367188 -0.398438 13.082031 -0.289062 12.71875 -0.1875 C 12.363281 -0.0820312 11.96875 0.0078125 11.53125 0.09375 C 11.09375 0.175781 10.625 0.242188 10.125 0.296875 C 9.632812 0.347656 9.140625 0.375 8.640625 0.375 C 7.367188 0.375 6.265625 0.1875 5.328125 -0.1875 C 4.398438 -0.5625 3.625 -1.070312 3 -1.71875 C 2.382812 -2.375 1.929688 -3.144531 1.640625 -4.03125 C 1.347656 -4.925781 1.203125 -5.890625 1.203125 -6.921875 Z M 10.5625 -8.453125 C 10.539062 -8.785156 10.476562 -9.113281 10.375 -9.4375 C 10.28125 -9.757812 10.128906 -10.046875 9.921875 -10.296875 C 9.722656 -10.546875 9.46875 -10.75 9.15625 -10.90625 C 8.84375 -11.0625 8.457031 -11.140625 8 -11.140625 C 7.550781 -11.140625 7.164062 -11.0625 6.84375 -10.90625 C 6.519531 -10.757812 6.25 -10.5625 6.03125 -10.3125 C 5.820312 -10.0625 5.660156 -9.769531 5.546875 -9.4375 C 5.429688 -9.113281 5.347656 -8.785156 5.296875 -8.453125 Z M 10.5625 -8.453125" transform="translate(118.905 28.79)"/></g></g></g><g fill="#0F586C"><g><g><path d="M 1.734375 -17.5625 L 5.71875 -18.203125 L 5.71875 -14.0625 L 10.5 -14.0625 L 10.5 -10.75 L 5.71875 -10.75 L 5.71875 -5.796875 C 5.71875 -4.960938 5.863281 -4.296875 6.15625 -3.796875 C 6.457031 -3.296875 7.050781 -3.046875 7.9375 -3.046875 C 8.363281 -3.046875 8.800781 -3.082031 9.25 -3.15625 C 9.707031 -3.238281 10.125 -3.351562 10.5 -3.5 L 11.0625 -0.40625 C 10.582031 -0.207031 10.046875 -0.0351562 9.453125 0.109375 C 8.867188 0.253906 8.148438 0.328125 7.296875 0.328125 C 6.210938 0.328125 5.3125 0.179688 4.59375 -0.109375 C 3.882812 -0.410156 3.316406 -0.820312 2.890625 -1.34375 C 2.460938 -1.875 2.160156 -2.515625 1.984375 -3.265625 C 1.816406 -4.015625 1.734375 -4.84375 1.734375 -5.75 Z M 1.734375 -17.5625" transform="translate(134.52 28.79)"/></g></g></g><g clip-path="url(#a)"><path fill="#99B83C" d="M 40.453125 9.914062 C 40.453125 10.179688 40.429688 10.445312 40.375 10.707031 C 40.324219 10.96875 40.246094 11.222656 40.144531 11.46875 C 40.042969 11.71875 39.917969 11.953125 39.769531 12.175781 C 39.621094 12.394531 39.449219 12.601562 39.261719 12.792969 C 39.074219 12.980469 38.867188 13.148438 38.644531 13.296875 C 38.421875 13.445312 38.1875 13.570312 37.941406 13.671875 C 37.695312 13.777344 37.441406 13.851562 37.175781 13.90625 C 36.914062 13.957031 36.652344 13.984375 36.382812 13.984375 C 36.117188 13.984375 35.851562 13.957031 35.589844 13.90625 C 35.328125 13.851562 35.074219 13.777344 34.824219 13.671875 C 34.578125 13.570312 34.34375 13.445312 34.121094 13.296875 C 33.898438 13.148438 33.695312 12.980469 33.503906 12.792969 C 33.316406 12.601562 33.148438 12.394531 33 12.175781 C 32.851562 11.953125 32.726562 11.71875 32.621094 11.46875 C 32.519531 11.222656 32.441406 10.96875 32.390625 10.707031 C 32.339844 10.445312 32.3125 10.179688 32.3125 9.914062 C 32.3125 9.644531 32.339844 9.378906 32.390625 9.117188 C 32.441406 8.855469 32.519531 8.601562 32.621094 8.355469 C 32.726562 8.109375 32.851562 7.875 33 7.652344 C 33.148438 7.429688 33.316406 7.222656 33.503906 7.035156 C 33.695312 6.84375 33.898438 6.675781 34.121094 6.527344 C 34.34375 6.378906 34.578125 6.253906 34.824219 6.152344 C 35.074219 6.050781 35.328125 5.972656 35.589844 5.921875 C 35.851562 5.867188 36.117188 5.84375 36.382812 5.84375 C 36.652344 5.84375 36.914062 5.867188 37.175781 5.921875 C 37.441406 5.972656 37.695312 6.050781 37.941406 6.152344 C 38.1875 6.253906 38.421875 6.378906 38.644531 6.527344 C 38.867188 6.675781 39.074219 6.84375 39.261719 7.035156 C 39.449219 7.222656 39.621094 7.429688 39.769531 7.652344 C 39.917969 7.875 40.042969 8.109375 40.144531 8.355469 C 40.246094 8.601562 40.324219 8.855469 40.375 9.117188 C 40.429688 9.378906 40.453125 9.644531 40.453125 9.914062 Z M 40.453125 9.914062"/></g><path fill="#FFF" d="M 35.375 12.71875 L 33.152344 10.5 L 34.039062 9.617188 L 35.375 10.949219 L 38.726562 7.597656 L 39.613281 8.480469 Z M 35.375 12.71875"/></svg>